# xmcd
#
# Track frame offsets: 
#        150
#        18395
#        39002
#        56427
#        70925
#        85952
#        100082
#        121875
#        139972
#        154487
#        170140
#        185197
#        197222
#        213450
#        233217
#        244955
#        261290
#        278502
#
# Disc length: 3907 seconds
#
# Revision: 1
# Processed by: cddbd v1.5.2PL0 Copyright (c) Steve Scherf et al.
# Submitted via: ExactAudioCopy v1.0b3
#
DISCID=0b0f4112
DTITLE=Sá e Guarabyra - Maxximum
DYEAR=1900
DGENRE=MPB
TTITLE0=Sobradinho (Ao vivo)
TTITLE1=Espanhola (Ao vivo)
TTITLE2=Cheiro mineiro de flor
TTITLE3=A longa noite
TTITLE4=Verdades e mentiras
TTITLE5=Roque santeiro
TTITLE6=Dona
TTITLE7=Lembranças do futuro
TTITLE8=Harmonia
TTITLE9=Muge o boi
TTITLE10=Parar de correr
TTITLE11=Rosto de atriz
TTITLE12=Tabuleiro
TTITLE13=Os meninos dos Abrolhos
TTITLE14=Fazer o céu
TTITLE15=Cartas, canções e palavras
TTITLE16=Serena
TTITLE17=Pés no chão
EXTD=
EXTT0=
EXTT1=
EXTT2=
EXTT3=
EXTT4=
EXTT5=
EXTT6=
EXTT7=
EXTT8=
EXTT9=
EXTT10=
EXTT11=
EXTT12=
EXTT13=
EXTT14=
EXTT15=
EXTT16=
EXTT17=
PLAYORDER=
